<svg width="27" height="27" viewBox="0 0 27 27" fill="none" xmlns="http://www.w3.org/2000/svg">
<path d="M26.4705 8.11158C26.4558 7.00707 26.2491 5.91354 25.8595 4.87991C25.5217 4.00805 25.0057 3.21624 24.3445 2.55508C23.6834 1.89392 22.8916 1.37794 22.0197 1.04012C20.9994 0.6571 19.9214 0.449993 18.8318 0.427621C17.4289 0.364912 16.9841 0.347412 13.4228 0.347412C9.86158 0.347412 9.40512 0.347412 8.01242 0.427621C6.92327 0.450158 5.84584 0.657261 4.82596 1.04012C3.95396 1.37771 3.16203 1.8936 2.50084 2.55479C1.83965 3.21598 1.32375 4.00791 0.986165 4.87991C0.602377 5.89948 0.39572 6.97716 0.375124 8.06637C0.312415 9.47075 0.293457 9.91554 0.293457 13.4768C0.293457 17.038 0.293457 17.493 0.375124 18.8872C0.396999 19.978 0.602624 21.0543 0.986165 22.0766C1.32432 22.9483 1.8406 23.7399 2.50201 24.4008C3.16342 25.0617 3.95542 25.5774 4.82742 25.9149C5.84451 26.3133 6.92212 26.5353 8.01387 26.5712C9.41825 26.6339 9.86304 26.6528 13.4243 26.6528C16.9855 26.6528 17.442 26.6528 18.8347 26.5712C19.9243 26.5497 21.0023 26.3431 22.0226 25.9601C22.8943 25.6219 23.6859 25.1058 24.347 24.4447C25.0081 23.7836 25.5242 22.992 25.8624 22.1203C26.246 21.0995 26.4516 20.0232 26.4735 18.931C26.5362 17.528 26.5551 17.0832 26.5551 13.5205C26.5522 9.95929 26.5522 9.5072 26.4705 8.11158V8.11158ZM13.4141 20.2114C9.6895 20.2114 6.67221 17.1941 6.67221 13.4695C6.67221 9.74491 9.6895 6.72762 13.4141 6.72762C15.2021 6.72762 16.917 7.43792 18.1813 8.70227C19.4457 9.96662 20.156 11.6814 20.156 13.4695C20.156 15.2576 19.4457 16.9724 18.1813 18.2367C16.917 19.5011 15.2021 20.2114 13.4141 20.2114V20.2114ZM20.4243 8.05033C20.2178 8.05052 20.0133 8.00999 19.8225 7.93105C19.6316 7.85212 19.4583 7.73632 19.3122 7.5903C19.1662 7.44428 19.0504 7.2709 18.9715 7.08008C18.8925 6.88926 18.852 6.68475 18.8522 6.47825C18.8522 6.27189 18.8929 6.06756 18.9718 5.87691C19.0508 5.68627 19.1665 5.51304 19.3124 5.36713C19.4584 5.22122 19.6316 5.10547 19.8222 5.0265C20.0129 4.94754 20.2172 4.90689 20.4236 4.90689C20.6299 4.90689 20.8342 4.94754 21.0249 5.0265C21.2155 5.10547 21.3888 5.22122 21.5347 5.36713C21.6806 5.51304 21.7963 5.68627 21.8753 5.87691C21.9543 6.06756 21.9949 6.27189 21.9949 6.47825C21.9949 7.34741 21.292 8.05033 20.4243 8.05033Z" fill="#a8a8a8"/>
<path d="M13.414 17.8488C15.8327 17.8488 17.7934 15.8881 17.7934 13.4695C17.7934 11.0508 15.8327 9.09009 13.414 9.09009C10.9954 9.09009 9.03467 11.0508 9.03467 13.4695C9.03467 15.8881 10.9954 17.8488 13.414 17.8488Z" fill="#a8a8a8"/>
</svg>
