<svg width="44" height="44" viewBox="0 0 44 44" fill="none" xmlns="http://www.w3.org/2000/svg">
<circle cx="22" cy="22" r="17" fill="white"/>
<path d="M22 0.6875C10.2259 0.6875 0.6875 10.2272 0.6875 22C0.6875 33.7728 10.2272 43.3125 22 43.3125C33.7741 43.3125 43.3125 33.7728 43.3125 22C43.3125 10.2272 33.7728 0.6875 22 0.6875ZM32.4679 15.2886L28.9699 31.7721C28.7114 32.9409 28.0156 33.2241 27.0449 32.6741L21.7167 28.7471L19.1469 31.2221C18.8636 31.5054 18.623 31.746 18.073 31.746L18.4511 26.323L28.325 17.402C28.7554 17.0239 28.2301 16.8094 27.6623 17.1875L15.4591 24.8696L10.1997 23.2279C9.05713 22.8676 9.031 22.0852 10.4404 21.5352L30.9884 13.6111C31.9426 13.2674 32.7759 13.8435 32.4665 15.2873L32.4679 15.2886Z" fill="#058FD1"/>
</svg>
