<svg width="42" height="42" viewBox="0 0 42 42" fill="none" xmlns="http://www.w3.org/2000/svg">
<path d="M38.6804 9.81988C32.4404 0.199877 19.7004 -2.66012 9.8204 3.31988C0.200403 9.29988 -2.9196 22.2999 3.3204 31.9199L3.8404 32.6999L1.7604 40.4999L9.5604 38.4199L10.3404 38.9399C13.7204 40.7599 17.3604 41.7999 21.0004 41.7999C24.9004 41.7999 28.8004 40.7599 32.1804 38.6799C41.8004 32.4399 44.6604 19.6999 38.6804 9.81988V9.81988ZM33.2204 29.8399C32.1804 31.3999 30.8804 32.4399 29.0604 32.6999C28.0204 32.6999 26.7204 33.2199 21.5204 31.1399C17.1004 29.0599 13.4604 25.6799 10.8604 21.7799C9.3004 19.9599 8.5204 17.6199 8.2604 15.2799C8.2604 13.1999 9.0404 11.3799 10.3404 10.0799C10.8604 9.55988 11.3804 9.29988 11.9004 9.29988H13.2004C13.7204 9.29988 14.2404 9.29988 14.5004 10.3399C15.0204 11.6399 16.3204 14.7599 16.3204 15.0199C16.5804 15.2799 16.5804 15.7999 16.3204 16.0599C16.5804 16.5799 16.3204 17.0999 16.0604 17.3599C15.8004 17.6199 15.5404 18.1399 15.2804 18.3999C14.7604 18.6599 14.5004 19.1799 14.7604 19.6999C15.8004 21.2599 17.1004 22.8199 18.4004 24.1199C19.9604 25.4199 21.5204 26.4599 23.3404 27.2399C23.8604 27.4999 24.3804 27.4999 24.6404 26.9799C24.9004 26.4599 26.2004 25.1599 26.7204 24.6399C27.2404 24.1199 27.5004 24.1199 28.0204 24.3799L32.1804 26.4599C32.7004 26.7199 33.2204 26.9799 33.4804 27.2399C33.7404 28.0199 33.7404 29.0599 33.2204 29.8399V29.8399Z" fill="#00B65F"/>
</svg>
